{
  "accessors": [
    {
      "bufferView": 2,
      "componentType": 5126,
      "count": 705,
      "max": [
        0.9008223414421082,
        1.8921016454696655,
        1.0520730018615723
      ],
      "min": [
        -0.9057390093803406,
        -0.9055758714675903,
        -0.8971559405326843
      ],
      "type": "VEC3"
    },
    {
      "bufferView": 2,
      "byteOffset": 8460,
      "componentType": 5126,
      "count": 705,
      "max": [
        0.9998101592063904,
        0.9999997019767761,
        0.9998676180839539
      ],
      "min": [
        -0.9998337626457214,
        -1.0,
        -0.9998126029968262
      ],
      "type": "VEC3"
    },
    {
      "bufferView": 1,
      "componentType": 5126,
      "count": 705,
      "max": [
        0.8750001192092896,
        1.0000001192092896
      ],
      "min": [
        0.1250000149011612,
        0.0
      ],
      "type": "VEC2"
    },
    {
      "bufferView": 0,
      "componentType": 5125,
      "count": 3840,
      "type": "SCALAR"
    },
    {
      "bufferView": 2,
      "byteOffset": 16920,
      "componentType": 5126,
      "count": 17405,
      "max": [
        1.0348412990570068,
        2.4980034828186035,
        1.034841537475586
      ],
      "min": [
        -3.8768818378448486,
        -1.0000004768371582,
        -1.034841537475586
      ],
      "type": "VEC3"
    },
    {
      "bufferView": 2,
      "byteOffset": 225780,
      "componentType": 5126,
      "count": 17405,
      "max": [
        1.0,
        1.0,
        1.0
      ],
      "min": [
        -1.0,
        -1.0,
        -1.0
      ],
      "type": "VEC3"
    },
    {
      "bufferView": 1,
      "byteOffset": 5640,
      "componentType": 5126,
      "count": 17405,
      "max": [
        1.0000001192092896,
        1.0000001192092896
      ],
      "min": [
        0.0,
        0.5
      ],
      "type": "VEC2"
    },
    {
      "bufferView": 0,
      "byteOffset": 15360,
      "componentType": 5125,
      "count": 26625,
      "type": "SCALAR"
    },
    {
      "bufferView": 2,
      "byteOffset": 434640,
      "componentType": 5126,
      "count": 170,
      "max": [
        0.9403606057167053,
        0.9812458753585815,
        0.9497376084327698
      ],
      "min": [
        -0.9403606653213501,
        -0.9812458753585815,
        0.009377152658998966
      ],
      "type": "VEC3"
    },
    {
      "bufferView": 2,
      "byteOffset": 436680,
      "componentType": 5126,
      "count": 170,
      "max": [
        0.9999518394470215,
        0.9997794032096863,
        1.0
      ],
      "min": [
        -0.9999518394470215,
        -0.9997794032096863,
        0.009815456345677376
      ],
      "type": "VEC3"
    },
    {
      "bufferView": 1,
      "byteOffset": 144880,
      "componentType": 5126,
      "count": 170,
      "max": [
        0.8750001192092896,
        1.0000001192092896
      ],
      "min": [
        0.1250000149011612,
        0.0
      ],
      "type": "VEC2"
    },
    {
      "bufferView": 0,
      "byteOffset": 121860,
      "componentType": 5125,
      "count": 768,
      "type": "SCALAR"
    },
    {
      "bufferView": 2,
      "byteOffset": 438720,
      "componentType": 5126,
      "count": 949,
      "max": [
        0.3656168580055237,
        1.0007991790771484,
        0.9869839549064636
      ],
      "min": [
        -1.0000001192092896,
        -0.42781350016593933,
        0.40923118591308594
      ],
      "type": "VEC3"
    },
    {
      "bufferView": 2,
      "byteOffset": 450108,
      "componentType": 5126,
      "count": 949,
      "max": [
        1.0,
        0.9999996423721313,
        0.9998261332511902
      ],
      "min": [
        -1.0,
        -0.9999996423721313,
        -0.9998616576194763
      ],
      "type": "VEC3"
    },
    {
      "bufferView": 1,
      "byteOffset": 146240,
      "componentType": 5126,
      "count": 949,
      "max": [
        0.8750001192092896,
        1.0000001192092896
      ],
      "min": [
        0.125,
        0.0
      ],
      "type": "VEC2"
    },
    {
      "bufferView": 0,
      "byteOffset": 124932,
      "componentType": 5125,
      "count": 5184,
      "type": "SCALAR"
    }
  ],
  "asset": {
    "extras": {
      "author": "smoketomb (https://sketchfab.com/smoketomb)",
      "license": "CC-BY-4.0 (http://creativecommons.org/licenses/by/4.0/)",
      "source": "https://sketchfab.com/3d-models/amogus-6918e00648994447a3d468a023c0f5ac",
      "title": "Amogus"
    },
    "generator": "Sketchfab-15.30.0",
    "version": "2.0"
  },
  "bufferViews": [
    {
      "buffer": 0,
      "byteLength": 145668,
      "name": "floatBufferViews",
      "target": 34963
    },
    {
      "buffer": 0,
      "byteLength": 153832,
      "byteOffset": 145668,
      "byteStride": 8,
      "name": "floatBufferViews",
      "target": 34962
    },
    {
      "buffer": 0,
      "byteLength": 461496,
      "byteOffset": 299500,
      "byteStride": 12,
      "name": "floatBufferViews",
      "target": 34962
    }
  ],
  "buffers": [
    {
      "byteLength": 760996,
      "uri": "scene.bin"
    }
  ],
  "materials": [
    {
      "doubleSided": true,
      "name": "Material",
      "pbrMetallicRoughness": {
        "baseColorFactor": [
          0.8,
          0.0,
          0.0226389,
          1.0
        ],
        "metallicFactor": 0.0,
        "roughnessFactor": 0.5
      }
    },
    {
      "doubleSided": true,
      "name": "Material.001",
      "pbrMetallicRoughness": {
        "baseColorFactor": [
          0.118637,
          0.58754,
          0.8,
          1.0
        ],
        "metallicFactor": 0.0,
        "roughnessFactor": 0.5
      }
    }
  ],
  "meshes": [
    {
      "name": "Object_0",
      "primitives": [
        {
          "attributes": {
            "NORMAL": 1,
            "POSITION": 0,
            "TEXCOORD_0": 2
          },
          "indices": 3,
          "material": 0,
          "mode": 4
        }
      ]
    },
    {
      "name": "Object_1",
      "primitives": [
        {
          "attributes": {
            "NORMAL": 5,
            "POSITION": 4,
            "TEXCOORD_0": 6
          },
          "indices": 7,
          "material": 0,
          "mode": 4
        }
      ]
    },
    {
      "name": "Object_2",
      "primitives": [
        {
          "attributes": {
            "NORMAL": 9,
            "POSITION": 8,
            "TEXCOORD_0": 10
          },
          "indices": 11,
          "material": 1,
          "mode": 4
        }
      ]
    },
    {
      "name": "Object_3",
      "primitives": [
        {
          "attributes": {
            "NORMAL": 13,
            "POSITION": 12,
            "TEXCOORD_0": 14
          },
          "indices": 15,
          "material": 0,
          "mode": 4
        }
      ]
    }
  ],
  "nodes": [
    {
      "children": [
        1
      ],
      "matrix": [
        1.0,
        0.0,
        0.0,
        0.0,
        0.0,
        2.220446049250313e-16,
        -1.0,
        0.0,
        0.0,
        1.0,
        2.220446049250313e-16,
        0.0,
        0.0,
        0.0,
        0.0,
        1.0
      ],
      "name": "Sketchfab_model"
    },
    {
      "children": [
        2
      ],
      "name": "root"
    },
    {
      "children": [
        3,
        5,
        7,
        9
      ],
      "matrix": [
        1.0,
        0.0,
        0.0,
        0.0,
        0.0,
        2.220446049250313e-16,
        1.0,
        0.0,
        0.0,
        -1.0,
        2.220446049250313e-16,
        0.0,
        0.0,
        0.0,
        0.0,
        1.0
      ],
      "name": "GLTF_SceneRootNode"
    },
    {
      "children": [
        4
      ],
      "matrix": [
        0.9181178212165833,
        0.0,
        0.0,
        0.0,
        0.0,
        0.9181178212165833,
        0.0,
        0.0,
        0.0,
        0.0,
        0.9181178212165833,
        0.0,
        0.0,
        0.0,
        0.0,
        1.0
      ],
      "name": "Cube_0"
    },
    {
      "mesh": 0,
      "name": "Object_4"
    },
    {
      "children": [
        6
      ],
      "matrix": [
        0.3250596225261688,
        0.0,
        0.0,
        0.0,
        0.0,
        0.3250596225261688,
        0.0,
        0.0,
        0.0,
        0.0,
        0.3535946011543274,
        0.0,
        0.4619162678718567,
        -1.055240511894226,
        0.0,
        1.0
      ],
      "name": "Cylinder_3"
    },
    {
      "mesh": 1,
      "name": "Object_6"
    },
    {
      "children": [
        8
      ],
      "matrix": [
        0.5220448036936958,
        0.0012606135549121486,
        0.019014986800694137,
        0.0,
        0.0006904173983667551,
        0.3549954716238999,
        -0.04248969126968368,
        0.0,
        -0.01302430096131859,
        0.04248654092971523,
        0.35475751836733316,
        0.0,
        0.0,
        0.7517282962799072,
        0.7697856426239014,
        1.0
      ],
      "name": "Cube.001_4"
    },
    {
      "mesh": 2,
      "name": "Object_8"
    },
    {
      "children": [
        10
      ],
      "matrix": [
        1.0,
        0.0,
        0.0,
        0.0,
        0.0,
        1.0,
        0.0,
        0.0,
        0.0,
        0.0,
        1.0,
        0.0,
        0.3242308497428894,
        -0.06052364036440849,
        -1.6110782623291016,
        1.0
      ],
      "name": "Cube.002_5"
    },
    {
      "mesh": 3,
      "name": "Object_10"
    }
  ],
  "scene": 0,
  "scenes": [
    {
      "name": "Sketchfab_Scene",
      "nodes": [
        0
      ]
    }
  ]
}
