{
  "accessors": [
    {
      "bufferView": 2,
      "componentType": 5126,
      "count": 7900,
      "max": [
        3.17165470123291,
        4.109912395477295,
        1.6199581623077393
      ],
      "min": [
        -2.8712997436523438,
        -3.3906869888305664,
        -1.6193366050720215
      ],
      "type": "VEC3"
    },
    {
      "bufferView": 2,
      "byteOffset": 94800,
      "componentType": 5126,
      "count": 7900,
      "max": [
        0.9999892711639404,
        0.9999369978904724,
        0.9998895525932312
      ],
      "min": [
        -0.9999775886535645,
        -0.9999992251396179,
        -0.9998895525932312
      ],
      "type": "VEC3"
    },
    {
      "bufferView": 1,
      "componentType": 5126,
      "count": 7900,
      "max": [
        0.8019988536834717,
        0.9749715924263
      ],
      "min": [
        0.17807655036449432,
        0.027505360543727875
      ],
      "type": "VEC2"
    },
    {
      "bufferView": 2,
      "byteOffset": 189600,
      "componentType": 5126,
      "count": 7900,
      "max": [
        0.5698981285095215,
        0.17255496978759766,
        0.0
      ],
      "min": [
        -0.6353042125701904,
        -0.11315536499023438,
        0.0
      ],
      "type": "VEC3"
    },
    {
      "bufferView": 2,
      "byteOffset": 284400,
      "componentType": 5126,
      "count": 7900,
      "max": [
        1.1881694793701172,
        0.42401933670043945,
        0.0
      ],
      "min": [
        -1.2947287559509277,
        -0.20947933197021484,
        0.0
      ],
      "type": "VEC3"
    },
    {
      "bufferView": 2,
      "byteOffset": 379200,
      "componentType": 5126,
      "count": 7900,
      "max": [
        1.7467041015625,
        0.726107120513916,
        0.0
      ],
      "min": [
        -1.8974554538726807,
        -0.32669973373413086,
        0.0
      ],
      "type": "VEC3"
    },
    {
      "bufferView": 2,
      "byteOffset": 474000,
      "componentType": 5126,
      "count": 7900,
      "max": [
        2.191126823425293,
        1.053957462310791,
        0.0
      ],
      "min": [
        -2.39129900932312,
        -0.4273819923400879,
        0.0
      ],
      "type": "VEC3"
    },
    {
      "bufferView": 2,
      "byteOffset": 568800,
      "componentType": 5126,
      "count": 7900,
      "max": [
        2.537991523742676,
        1.3645882606506348,
        0.0
      ],
      "min": [
        -2.7663204669952393,
        -0.5118966102600098,
        0.0
      ],
      "type": "VEC3"
    },
    {
      "bufferView": 2,
      "byteOffset": 663600,
      "componentType": 5126,
      "count": 7900,
      "max": [
        2.8483619689941406,
        1.639441967010498,
        0.0
      ],
      "min": [
        -3.0537164211273193,
        -0.5794525146484375,
        0.0
      ],
      "type": "VEC3"
    },
    {
      "bufferView": 2,
      "byteOffset": 758400,
      "componentType": 5126,
      "count": 7900,
      "max": [
        2.8483619689941406,
        1.880272388458252,
        0.0
      ],
      "min": [
        -3.3096511363983154,
        -0.6401839256286621,
        0.0
      ],
      "type": "VEC3"
    },
    {
      "bufferView": 2,
      "byteOffset": 853200,
      "componentType": 5126,
      "count": 7900,
      "max": [
        2.886925220489502,
        1.9906196594238281,
        0.0
      ],
      "min": [
        -3.2396023273468018,
        -0.699742317199707,
        0.0
      ],
      "type": "VEC3"
    },
    {
      "bufferView": 2,
      "byteOffset": 948000,
      "componentType": 5126,
      "count": 7900,
      "max": [
        3.0633463859558105,
        1.843160629272461,
        0.0
      ],
      "min": [
        -2.6721599102020264,
        -0.7741713523864746,
        0.0
      ],
      "type": "VEC3"
    },
    {
      "bufferView": 2,
      "byteOffset": 1042800,
      "componentType": 5126,
      "count": 7900,
      "max": [
        3.323309898376465,
        1.792860984802246,
        0.0
      ],
      "min": [
        -1.881615400314331,
        -0.8580365180969238,
        0.0
      ],
      "type": "VEC3"
    },
    {
      "bufferView": 2,
      "byteOffset": 1137600,
      "componentType": 5126,
      "count": 7900,
      "max": [
        3.577488899230957,
        1.7789959907531738,
        0.0
      ],
      "min": [
        -1.0595855712890625,
        -0.9769854545593262,
        0.0
      ],
      "type": "VEC3"
    },
    {
      "bufferView": 2,
      "byteOffset": 1232400,
      "componentType": 5126,
      "count": 7900,
      "max": [
        3.4422860145568848,
        1.6711020469665527,
        0.0
      ],
      "min": [
        -0.4161570072174072,
        -1.0673279762268066,
        0.0
      ],
      "type": "VEC3"
    },
    {
      "bufferView": 2,
      "byteOffset": 1327200,
      "componentType": 5126,
      "count": 7900,
      "max": [
        2.568418025970459,
        1.2159638404846191,
        0.0
      ],
      "min": [
        -0.25986242294311523,
        -1.355149745941162,
        0.0
      ],
      "type": "VEC3"
    },
    {
      "bufferView": 2,
      "byteOffset": 1422000,
      "componentType": 5126,
      "count": 7900,
      "max": [
        1.4577727317810059,
        1.2217535972595215,
        0.0
      ],
      "min": [
        -0.46607065200805664,
        -1.4603867530822754,
        0.0
      ],
      "type": "VEC3"
    },
    {
      "bufferView": 2,
      "byteOffset": 1516800,
      "componentType": 5126,
      "count": 7900,
      "max": [
        1.3611280918121338,
        1.233065128326416,
        0.0
      ],
      "min": [
        -0.6406593322753906,
        -1.3525948524475098,
        0.0
      ],
      "type": "VEC3"
    },
    {
      "bufferView": 2,
      "byteOffset": 1611600,
      "componentType": 5126,
      "count": 7900,
      "max": [
        1.3611280918121338,
        1.194383144378662,
        0.0
      ],
      "min": [
        -0.6506586074829102,
        -1.1628384590148926,
        0.0
      ],
      "type": "VEC3"
    },
    {
      "bufferView": 2,
      "byteOffset": 1706400,
      "componentType": 5126,
      "count": 7900,
      "max": [
        1.3611280918121338,
        1.1340088844299316,
        0.0
      ],
      "min": [
        -0.700657844543457,
        -0.975832462310791,
        0.0
      ],
      "type": "VEC3"
    },
    {
      "bufferView": 2,
      "byteOffset": 1801200,
      "componentType": 5126,
      "count": 7900,
      "max": [
        1.3611280918121338,
        1.061913013458252,
        0.0
      ],
      "min": [
        -0.7806735038757324,
        -0.8035016059875488,
        0.0
      ],
      "type": "VEC3"
    },
    {
      "bufferView": 2,
      "byteOffset": 1896000,
      "componentType": 5126,
      "count": 7900,
      "max": [
        1.32114577293396,
        0.9787740707397461,
        0.0
      ],
      "min": [
        -0.9806861877441406,
        -0.6485443115234375,
        0.0
      ],
      "type": "VEC3"
    },
    {
      "bufferView": 2,
      "byteOffset": 1990800,
      "componentType": 5126,
      "count": 7900,
      "max": [
        0.7714760303497314,
        0.8103013038635254,
        0.0
      ],
      "min": [
        -1.000685691833496,
        -0.5486574172973633,
        0.0
      ],
      "type": "VEC3"
    },
    {
      "bufferView": 2,
      "byteOffset": 2085600,
      "componentType": 5126,
      "count": 7900,
      "max": [
        -0.06751561164855957,
        0.6214752197265625,
        0.0
      ],
      "min": [
        -0.8126296997070313,
        -0.53179931640625,
        0.0
      ],
      "type": "VEC3"
    },
    {
      "bufferView": 2,
      "byteOffset": 2180400,
      "componentType": 5126,
      "count": 7900,
      "max": [
        1.3492670059204102,
        0.6362752914428711,
        0.0
      ],
      "min": [
        -1.2911019325256348,
        -0.5816082954406738,
        0.0
      ],
      "type": "VEC3"
    },
    {
      "bufferView": 2,
      "byteOffset": 2275200,
      "componentType": 5126,
      "count": 7900,
      "max": [
        2.8491687774658203,
        0.8565573692321777,
        0.0
      ],
      "min": [
        -1.6379492282867432,
        -0.6008291244506836,
        0.0
      ],
      "type": "VEC3"
    },
    {
      "bufferView": 2,
      "byteOffset": 2370000,
      "componentType": 5126,
      "count": 7900,
      "max": [
        2.8491687774658203,
        1.2383003234863281,
        0.0
      ],
      "min": [
        -2.0290887355804443,
        -0.6910367012023926,
        0.0
      ],
      "type": "VEC3"
    },
    {
      "bufferView": 2,
      "byteOffset": 2464800,
      "componentType": 5126,
      "count": 7900,
      "max": [
        2.886186122894287,
        1.6312360763549805,
        0.0
      ],
      "min": [
        -2.3596031665802,
        -0.8086466789245605,
        0.0
      ],
      "type": "VEC3"
    },
    {
      "bufferView": 2,
      "byteOffset": 2559600,
      "componentType": 5126,
      "count": 7900,
      "max": [
        2.9826712608337402,
        1.8973422050476074,
        0.0
      ],
      "min": [
        -2.461623191833496,
        -0.9337434768676758,
        0.0
      ],
      "type": "VEC3"
    },
    {
      "bufferView": 2,
      "byteOffset": 2654400,
      "componentType": 5126,
      "count": 7900,
      "max": [
        3.0665106773376465,
        2.0516557693481445,
        0.0
      ],
      "min": [
        -2.5356156826019287,
        -1.0563549995422363,
        0.0
      ],
      "type": "VEC3"
    },
    {
      "bufferView": 2,
      "byteOffset": 2749200,
      "componentType": 5126,
      "count": 7900,
      "max": [
        3.1419262886047363,
        2.15310001373291,
        0.0
      ],
      "min": [
        -2.5710246562957764,
        -1.1682934761047363,
        0.0
      ],
      "type": "VEC3"
    },
    {
      "bufferView": 2,
      "byteOffset": 2844000,
      "componentType": 5126,
      "count": 7900,
      "max": [
        3.2073774337768555,
        2.2220659255981445,
        0.0
      ],
      "min": [
        -2.5907886028289795,
        -1.267707347869873,
        0.0
      ],
      "type": "VEC3"
    },
    {
      "bufferView": 2,
      "byteOffset": 2938800,
      "componentType": 5126,
      "count": 7900,
      "max": [
        3.284162998199463,
        2.149021625518799,
        0.0
      ],
      "min": [
        -2.503509759902954,
        -1.3655123710632324,
        0.0
      ],
      "type": "VEC3"
    },
    {
      "bufferView": 2,
      "byteOffset": 3033600,
      "componentType": 5126,
      "count": 7900,
      "max": [
        3.152914524078369,
        1.8210949897766113,
        0.0
      ],
      "min": [
        -2.017317295074463,
        -1.3594365119934082,
        0.0
      ],
      "type": "VEC3"
    },
    {
      "bufferView": 2,
      "byteOffset": 3128400,
      "componentType": 5126,
      "count": 7900,
      "max": [
        2.6432080268859863,
        1.4197978973388672,
        0.0
      ],
      "min": [
        -1.182065725326538,
        -1.707052230834961,
        0.0
      ],
      "type": "VEC3"
    },
    {
      "bufferView": 2,
      "byteOffset": 3223200,
      "componentType": 5126,
      "count": 7900,
      "max": [
        1.9307832717895508,
        1.2497072219848633,
        0.0
      ],
      "min": [
        -0.5897300243377686,
        -1.8703479766845703,
        0.0
      ],
      "type": "VEC3"
    },
    {
      "bufferView": 2,
      "byteOffset": 3318000,
      "componentType": 5126,
      "count": 7900,
      "max": [
        1.1554412841796875,
        1.215749740600586,
        0.0
      ],
      "min": [
        -0.5004429817199707,
        -1.7652511596679688,
        0.0
      ],
      "type": "VEC3"
    },
    {
      "bufferView": 2,
      "byteOffset": 3412800,
      "componentType": 5126,
      "count": 7900,
      "max": [
        1.1815516948699951,
        1.2002625465393066,
        0.0
      ],
      "min": [
        -0.790555477142334,
        -1.5531220436096191,
        0.0
      ],
      "type": "VEC3"
    },
    {
      "bufferView": 2,
      "byteOffset": 3507600,
      "componentType": 5126,
      "count": 7900,
      "max": [
        1.2215344905853271,
        1.1518707275390625,
        0.0
      ],
      "min": [
        -0.7940168380737305,
        -1.3300747871398926,
        0.0
      ],
      "type": "VEC3"
    },
    {
      "bufferView": 2,
      "byteOffset": 3602400,
      "componentType": 5126,
      "count": 7900,
      "max": [
        1.1945784091949463,
        1.0812411308288574,
        0.0
      ],
      "min": [
        -0.7929220199584961,
        -1.1234335899353027,
        0.0
      ],
      "type": "VEC3"
    },
    {
      "bufferView": 2,
      "byteOffset": 3697200,
      "componentType": 5126,
      "count": 7900,
      "max": [
        1.1054174900054932,
        1.0018558502197266,
        0.0
      ],
      "min": [
        -0.766542911529541,
        -0.9471640586853027,
        0.0
      ],
      "type": "VEC3"
    },
    {
      "bufferView": 2,
      "byteOffset": 3792000,
      "componentType": 5126,
      "count": 7900,
      "max": [
        0.9049429893493652,
        0.9235305786132813,
        0.0
      ],
      "min": [
        -0.664980411529541,
        -0.8080310821533203,
        0.0
      ],
      "type": "VEC3"
    },
    {
      "bufferView": 2,
      "byteOffset": 3886800,
      "componentType": 5126,
      "count": 7900,
      "max": [
        0.604240894317627,
        0.8614034652709961,
        0.0
      ],
      "min": [
        -0.5777535438537598,
        -0.7114524841308594,
        0.0
      ],
      "type": "VEC3"
    },
    {
      "bufferView": 0,
      "componentType": 5125,
      "count": 47388,
      "type": "SCALAR"
    },
    {
      "bufferView": 3,
      "componentType": 5126,
      "count": 41,
      "max": [
        1.6666666269302368
      ],
      "min": [
        0.0
      ],
      "type": "SCALAR"
    },
    {
      "bufferView": 3,
      "byteOffset": 164,
      "componentType": 5126,
      "count": 1640,
      "max": [
        1.0
      ],
      "min": [
        0.0
      ],
      "type": "SCALAR"
    }
  ],
  "animations": [
    {
      "channels": [
        {
          "sampler": 0,
          "target": {
            "node": 4,
            "path": "weights"
          }
        }
      ],
      "name": "GltfAnimation 0",
      "samplers": [
        {
          "input": 44,
          "interpolation": "LINEAR",
          "output": 45
        }
      ]
    }
  ],
  "asset": {
    "extras": {
      "author": "Unesty (https://sketchfab.com/unesty)",
      "license": "CC-BY-4.0 (http://creativecommons.org/licenses/by/4.0/)",
      "source": "https://sketchfab.com/3d-models/amogus-aed0120bf85649d796b2ac2c1a1e0d37",
      "title": "Amogus"
    },
    "generator": "Sketchfab-12.68.0",
    "version": "2.0"
  },
  "bufferViews": [
    {
      "buffer": 0,
      "byteLength": 189552,
      "name": "floatBufferViews",
      "target": 34963
    },
    {
      "buffer": 0,
      "byteLength": 63200,
      "byteOffset": 189552,
      "byteStride": 8,
      "name": "floatBufferViews",
      "target": 34962
    },
    {
      "buffer": 0,
      "byteLength": 3981600,
      "byteOffset": 252752,
      "byteStride": 12,
      "name": "floatBufferViews",
      "target": 34962
    },
    {
      "buffer": 0,
      "byteLength": 6724,
      "byteOffset": 4234352,
      "name": "floatBufferViews"
    }
  ],
  "buffers": [
    {
      "byteLength": 4241076,
      "uri": "scene.bin"
    }
  ],
  "images": [
    {
      "uri": "textures/mesh_0_baseColor.png"
    }
  ],
  "materials": [
    {
      "name": "mesh_0",
      "pbrMetallicRoughness": {
        "baseColorTexture": {
          "index": 0
        },
        "metallicFactor": 0.0
      }
    }
  ],
  "meshes": [
    {
      "name": "mesh_0",
      "primitives": [
        {
          "attributes": {
            "NORMAL": 1,
            "POSITION": 0,
            "TEXCOORD_0": 2
          },
          "indices": 43,
          "material": 0,
          "mode": 4,
          "targets": [
            {
              "POSITION": 3
            },
            {
              "POSITION": 4
            },
            {
              "POSITION": 5
            },
            {
              "POSITION": 6
            },
            {
              "POSITION": 7
            },
            {
              "POSITION": 8
            },
            {
              "POSITION": 9
            },
            {
              "POSITION": 10
            },
            {
              "POSITION": 11
            },
            {
              "POSITION": 12
            },
            {
              "POSITION": 13
            },
            {
              "POSITION": 14
            },
            {
              "POSITION": 15
            },
            {
              "POSITION": 16
            },
            {
              "POSITION": 17
            },
            {
              "POSITION": 18
            },
            {
              "POSITION": 19
            },
            {
              "POSITION": 20
            },
            {
              "POSITION": 21
            },
            {
              "POSITION": 22
            },
            {
              "POSITION": 23
            },
            {
              "POSITION": 24
            },
            {
              "POSITION": 25
            },
            {
              "POSITION": 26
            },
            {
              "POSITION": 27
            },
            {
              "POSITION": 28
            },
            {
              "POSITION": 29
            },
            {
              "POSITION": 30
            },
            {
              "POSITION": 31
            },
            {
              "POSITION": 32
            },
            {
              "POSITION": 33
            },
            {
              "POSITION": 34
            },
            {
              "POSITION": 35
            },
            {
              "POSITION": 36
            },
            {
              "POSITION": 37
            },
            {
              "POSITION": 38
            },
            {
              "POSITION": 39
            },
            {
              "POSITION": 40
            },
            {
              "POSITION": 41
            },
            {
              "POSITION": 42
            }
          ]
        }
      ],
      "weights": [
        0.0,
        0.0,
        0.0,
        0.0,
        0.0,
        0.0,
        0.0,
        0.0,
        0.0,
        0.0,
        0.0,
        0.0,
        0.0,
        0.0,
        0.0,
        0.0,
        0.0,
        0.0,
        0.0,
        0.0,
        0.0,
        0.0,
        0.0,
        0.0,
        0.0,
        0.0,
        0.0,
        0.0,
        0.0,
        0.0,
        0.0,
        0.0,
        0.0,
        0.0,
        0.0,
        0.0,
        0.0,
        0.0,
        0.0,
        0.0
      ]
    }
  ],
  "nodes": [
    {
      "children": [
        1
      ],
      "matrix": [
        1.0,
        0.0,
        0.0,
        0.0,
        0.0,
        2.220446049250313e-16,
        -1.0,
        0.0,
        0.0,
        1.0,
        2.220446049250313e-16,
        0.0,
        0.0,
        0.0,
        0.0,
        1.0
      ],
      "name": "Sketchfab_model"
    },
    {
      "children": [
        2
      ],
      "name": "root"
    },
    {
      "children": [
        3
      ],
      "matrix": [
        1.0,
        0.0,
        0.0,
        0.0,
        0.0,
        2.220446049250313e-16,
        1.0,
        0.0,
        0.0,
        -1.0,
        2.220446049250313e-16,
        0.0,
        0.0,
        0.0,
        0.0,
        1.0
      ],
      "name": "GLTF_SceneRootNode"
    },
    {
      "children": [
        4
      ],
      "name": "_0"
    },
    {
      "mesh": 0,
      "name": "mesh_0"
    }
  ],
  "samplers": [
    {
      "magFilter": 9729,
      "minFilter": 9729,
      "wrapS": 33071,
      "wrapT": 33071
    }
  ],
  "scene": 0,
  "scenes": [
    {
      "name": "Sketchfab_Scene",
      "nodes": [
        0
      ]
    }
  ],
  "textures": [
    {
      "sampler": 0,
      "source": 0
    }
  ]
}
